<svg xmlns="http://www.w3.org/2000/svg" version="1.1" xmlns:xlink="http://www.w3.org/1999/xlink" xmlns:svgjs="http://svgjs.dev/svgjs" width="100%" height="100%" viewBox="0 0 1000 600"><rect width="1000" height="600" x="0" y="0" fill="#ffffff"/><g><rect width="333.3333333333333" height="333.3333333333333" rx="13.333333333333334" ry="13.333333333333334" y="77.77777014838344" fill="#0066cc" transform="matrix(2.2499999313354513,0,0,2.2499999313354517,0,-249.99999084472722)" x="55.55555725097656"/><path d="M67.39585365727027 228.2688962637537L193.6462466567481 169.44443230373957L205.0192949284649 195.58332896184496L92.53124605610651 244.42053624627582L205.0192949284649 293.9745322873275L193.6462466567481 319.4444261059201L67.39585365727027 260.619962145906L67.39585365727027 228.2688962637537ZM239.42515524626356 195.58332896184496L250.79820351798034 169.44443230373957L377.04859651745824 228.2688962637537L377.04859651745824 260.619962145906L250.79820351798034 319.4444261059201L239.42515524626356 293.9745322873275L351.91320411862193 244.42053624627582L239.42515524626356 195.58332896184496Z " fill="#ffffff" transform="matrix(2.2499999313354513,0,0,2.2499999313354517,0,-249.99999084472722)"/><path d="MNaN 244.44444105360233 " fill="#3d155f" transform="matrix(2.2499999313354513,0,0,2.2499999313354517,0,-249.99999084472722)"/></g></svg>